<?xml version="1.0" encoding="iso-8859-1"?>
<!-- Generator: Adobe Illustrator 18.0.0, SVG Export Plug-In . SVG Version: 6.00 Build 0)  -->
<!DOCTYPE svg PUBLIC "-//W3C//DTD SVG 1.1//EN" "http://www.w3.org/Graphics/SVG/1.1/DTD/svg11.dtd">
<svg version="1.1" id="Capa_1" xmlns="http://www.w3.org/2000/svg" xmlns:xlink="http://www.w3.org/1999/xlink" x="0px" y="0px"
	 viewBox="0 0 440 440" style="enable-background:new 0 0 440 440;" xml:space="preserve">
<path d="M430.843,210.531c8.295-32.301,9.124-60.55,9.155-61.737c0.054-2.019-1.113-3.872-2.957-4.696
	c-36.633-16.38-74.181-22.105-111.601-17.011c-26.916,3.664-53.082,12.734-77.771,26.96c-17.067,9.834-38.272,9.833-55.338,0
	c-24.69-14.226-50.856-23.296-77.771-26.96c-37.423-5.092-74.967,0.631-111.601,17.011c-1.844,0.824-3.011,2.677-2.957,4.696
	c0.031,1.187,0.86,29.437,9.155,61.737c8.219,32.006,20.511,55.947,36.666,71.533l-16.957,20.229
	c-0.939,1.121-1.341,2.597-1.099,4.04c0.242,1.442,1.104,2.707,2.358,3.459c5.517,3.31,11.607,4.922,17.644,4.922
	c9.06,0,17.994-3.634,24.662-10.613l3.466-3.624c24.889,9.301,48.571,7.866,70.528-4.318c25.246-14.008,40.909-38.698,47.999-52.168
	c4.857-9.229,9.54-18.424,13.919-27.328v0c2.235-4.544,6.593-7.257,11.656-7.257c5.063,0,9.42,2.713,11.655,7.256
	c4.382,8.911,9.065,18.106,13.92,27.328c7.09,13.471,22.753,38.16,47.999,52.168c12.452,6.91,25.459,10.364,38.926,10.364
	c10.279,0,20.828-2.02,31.603-6.046l3.464,3.622c6.67,6.981,15.604,10.615,24.665,10.615c6.035,0,12.127-1.612,17.643-4.922
	c1.255-0.753,2.116-2.017,2.358-3.459c0.242-1.443-0.159-2.919-1.099-4.04l-16.957-20.229
	C410.331,266.477,422.623,242.536,430.843,210.531z M416.557,189.154c-1.225-3.772-2.649-7.258-4.165-10.458
	c6.429,6.155,10.419,11.697,12.127,14.281c-1.099,5.566-2.417,11.39-3.993,17.313C420.145,203.432,418.899,196.366,416.557,189.154z
	 M19.485,210.265c-1.576-5.921-2.893-11.742-3.993-17.306c1.714-2.592,5.7-8.12,12.113-14.261
	c-1.515,3.199-2.939,6.685-4.164,10.456C21.102,196.359,19.868,203.415,19.485,210.265z M65.203,297.191
	c-6.441,6.743-15.867,9.072-24.436,6.47l12.656-15.098c3.937,2.966,8.069,5.507,12.4,7.601c0.083,0.04,0.166,0.077,0.249,0.117
	L65.203,297.191z M107.386,296.436c-11.231-0.001-23.641-2.717-37.21-9.276c-1.267-0.612-2.507-1.266-3.721-1.96
	c-9.382-5.361-16.996-13.31-22.583-22.559c-14.488-23.982-18.212-47.476-11.056-69.972c5.413-17.015,15.585-27.875,17.904-30.195
	c31.165-15.375,68.662-12.317,111.493,9.132c17.37,8.699,26.471,27.942,22.131,46.796c-4.794,20.82-16.423,49.776-44.558,69.904
	C130.358,293.246,119.56,296.438,107.386,296.436z M240.628,212.249c-3.896-7.922-11.8-12.843-20.627-12.843
	c-0.001,0-0.001,0-0.001,0c-8.828,0-16.732,4.921-20.629,12.843v0c-2.045,4.158-4.162,8.383-6.327,12.643
	c0.377-1.445,0.727-2.864,1.045-4.247c5.379-23.366-5.888-47.208-27.397-57.98c-32.193-16.121-79.609-30.599-122.673-8.017
	c-14.62,7.666-24.745,17.521-30.885,24.813c-1.916-12.586-2.686-22.653-2.975-27.602c33.912-14.558,68.562-19.557,103.052-14.865
	c25.625,3.488,50.565,12.14,74.128,25.716c20.144,11.607,45.175,11.608,65.322,0c23.562-13.576,48.502-22.229,74.128-25.716
	c34.488-4.694,69.141,0.307,103.054,14.865c-0.287,4.95-1.053,15.022-2.967,27.613c-6.138-7.293-16.266-17.155-30.895-24.825
	c-43.064-22.583-90.479-8.104-122.672,8.016c-21.512,10.772-32.778,34.616-27.397,57.982c0.319,1.384,0.669,2.804,1.046,4.25
	C244.792,220.638,242.674,216.411,240.628,212.249z M300.179,288.28c-28.109-20.126-39.731-49.066-44.522-69.877
	c-4.341-18.854,4.76-38.098,22.132-46.797c42.832-21.448,80.33-24.506,111.5-9.128c2.293,2.279,12.275,12.875,17.759,29.765
	c7.344,22.621,3.667,46.258-10.917,70.397c-5.589,9.252-13.205,17.203-22.591,22.564c-1.212,0.692-2.45,1.345-3.715,1.957
	C341.521,300.839,318.31,297.795,300.179,288.28z M399.232,303.661c-8.565,2.6-17.995,0.271-24.438-6.473l-0.868-0.908
	c0.083-0.04,0.166-0.077,0.249-0.117c4.332-2.094,8.463-4.635,12.4-7.601L399.232,303.661z"/>
<g>
</g>
<g>
</g>
<g>
</g>
<g>
</g>
<g>
</g>
<g>
</g>
<g>
</g>
<g>
</g>
<g>
</g>
<g>
</g>
<g>
</g>
<g>
</g>
<g>
</g>
<g>
</g>
<g>
</g>
</svg>
